<mxfile host="app.diagrams.net" modified="2021-11-11T12:30:04.019Z" agent="5.0 (Windows)" etag="7fgko3VIgst5D1haLMvo" version="15.7.0" type="github">
  <diagram id="kgpKYQtTHZ0yAKxKKP6v" name="Page-1">
    <mxGraphModel dx="813" dy="435" grid="1" gridSize="10" guides="1" tooltips="1" connect="1" arrows="1" fold="1" page="1" pageScale="1" pageWidth="850" pageHeight="1100" math="0" shadow="0">
      <root>
        <mxCell id="0" />
        <mxCell id="1" parent="0" />
        <mxCell id="3nuBFxr9cyL0pnOWT2aG-1" value="User/Frontend" style="shape=umlLifeline;perimeter=lifelinePerimeter;container=1;collapsible=0;recursiveResize=0;rounded=0;shadow=0;strokeWidth=1;" parent="1" vertex="1">
          <mxGeometry x="120" y="80" width="100" height="370" as="geometry" />
        </mxCell>
        <mxCell id="3nuBFxr9cyL0pnOWT2aG-3" value="user provides credentials" style="verticalAlign=bottom;startArrow=oval;endArrow=block;startSize=8;shadow=0;strokeWidth=1;" parent="3nuBFxr9cyL0pnOWT2aG-1" target="3nuBFxr9cyL0pnOWT2aG-2" edge="1">
          <mxGeometry x="-0.0476" relative="1" as="geometry">
            <mxPoint x="-60" y="89" as="sourcePoint" />
            <mxPoint as="offset" />
          </mxGeometry>
        </mxCell>
        <mxCell id="3nuBFxr9cyL0pnOWT2aG-2" value="" style="points=[];perimeter=orthogonalPerimeter;rounded=0;shadow=0;strokeWidth=1;" parent="3nuBFxr9cyL0pnOWT2aG-1" vertex="1">
          <mxGeometry x="45" y="89" width="10" height="261" as="geometry" />
        </mxCell>
        <mxCell id="zPNpfCHawolNsik41Qsi-15" value="send userid &amp;amp; encrypted credentials" style="html=1;verticalAlign=bottom;endArrow=block;rounded=0;entryX=-0.186;entryY=0.009;entryDx=0;entryDy=0;entryPerimeter=0;" edge="1" parent="3nuBFxr9cyL0pnOWT2aG-1" target="zPNpfCHawolNsik41Qsi-14">
          <mxGeometry width="80" relative="1" as="geometry">
            <mxPoint x="55" y="263" as="sourcePoint" />
            <mxPoint x="135" y="263" as="targetPoint" />
          </mxGeometry>
        </mxCell>
        <mxCell id="zPNpfCHawolNsik41Qsi-17" value="encrypt credentials using hash" style="edgeStyle=orthogonalEdgeStyle;html=1;align=left;spacingLeft=2;endArrow=block;rounded=0;entryX=1;entryY=0;" edge="1" parent="3nuBFxr9cyL0pnOWT2aG-1">
          <mxGeometry relative="1" as="geometry">
            <mxPoint x="55" y="210" as="sourcePoint" />
            <Array as="points">
              <mxPoint x="80" y="210" />
            </Array>
            <mxPoint x="55" y="230" as="targetPoint" />
          </mxGeometry>
        </mxCell>
        <mxCell id="3nuBFxr9cyL0pnOWT2aG-5" value="Backend" style="shape=umlLifeline;perimeter=lifelinePerimeter;container=1;collapsible=0;recursiveResize=0;rounded=0;shadow=0;strokeWidth=1;" parent="1" vertex="1">
          <mxGeometry x="365" y="80" width="100" height="370" as="geometry" />
        </mxCell>
        <mxCell id="3nuBFxr9cyL0pnOWT2aG-6" value="" style="points=[];perimeter=orthogonalPerimeter;rounded=0;shadow=0;strokeWidth=1;" parent="3nuBFxr9cyL0pnOWT2aG-5" vertex="1">
          <mxGeometry x="45" y="89" width="10" height="101" as="geometry" />
        </mxCell>
        <mxCell id="zPNpfCHawolNsik41Qsi-11" value="create new userid &amp;amp; hash" style="edgeStyle=orthogonalEdgeStyle;html=1;align=left;spacingLeft=2;endArrow=block;rounded=0;entryX=0.934;entryY=0.259;entryDx=0;entryDy=0;entryPerimeter=0;" edge="1" target="3nuBFxr9cyL0pnOWT2aG-6" parent="3nuBFxr9cyL0pnOWT2aG-5">
          <mxGeometry relative="1" as="geometry">
            <mxPoint x="55" y="95.5" as="sourcePoint" />
            <Array as="points">
              <mxPoint x="85" y="96" />
              <mxPoint x="85" y="115" />
            </Array>
            <mxPoint x="75" y="115" as="targetPoint" />
          </mxGeometry>
        </mxCell>
        <mxCell id="zPNpfCHawolNsik41Qsi-12" value="" style="html=1;points=[];perimeter=orthogonalPerimeter;" vertex="1" parent="3nuBFxr9cyL0pnOWT2aG-5">
          <mxGeometry x="50" y="141" width="10" height="40" as="geometry" />
        </mxCell>
        <mxCell id="zPNpfCHawolNsik41Qsi-13" value="register userid in db" style="edgeStyle=orthogonalEdgeStyle;html=1;align=left;spacingLeft=2;endArrow=block;rounded=0;entryX=1;entryY=0;" edge="1" target="zPNpfCHawolNsik41Qsi-12" parent="3nuBFxr9cyL0pnOWT2aG-5">
          <mxGeometry relative="1" as="geometry">
            <mxPoint x="55" y="121" as="sourcePoint" />
            <Array as="points">
              <mxPoint x="85" y="121" />
            </Array>
          </mxGeometry>
        </mxCell>
        <mxCell id="zPNpfCHawolNsik41Qsi-14" value="" style="html=1;points=[];perimeter=orthogonalPerimeter;" vertex="1" parent="3nuBFxr9cyL0pnOWT2aG-5">
          <mxGeometry x="45" y="263" width="10" height="87" as="geometry" />
        </mxCell>
        <mxCell id="zPNpfCHawolNsik41Qsi-18" value="" style="html=1;points=[];perimeter=orthogonalPerimeter;" vertex="1" parent="3nuBFxr9cyL0pnOWT2aG-5">
          <mxGeometry x="50" y="293" width="10" height="40" as="geometry" />
        </mxCell>
        <mxCell id="zPNpfCHawolNsik41Qsi-19" value="store encrypted credentials in db" style="edgeStyle=orthogonalEdgeStyle;html=1;align=left;spacingLeft=2;endArrow=block;rounded=0;entryX=1;entryY=0;" edge="1" target="zPNpfCHawolNsik41Qsi-18" parent="3nuBFxr9cyL0pnOWT2aG-5">
          <mxGeometry relative="1" as="geometry">
            <mxPoint x="55" y="273" as="sourcePoint" />
            <Array as="points">
              <mxPoint x="85" y="273" />
            </Array>
          </mxGeometry>
        </mxCell>
        <mxCell id="3nuBFxr9cyL0pnOWT2aG-8" value="send request for registration" style="verticalAlign=bottom;endArrow=block;entryX=0;entryY=0;shadow=0;strokeWidth=1;exitX=0.92;exitY=0.005;exitDx=0;exitDy=0;exitPerimeter=0;" parent="1" source="3nuBFxr9cyL0pnOWT2aG-2" target="3nuBFxr9cyL0pnOWT2aG-6" edge="1">
          <mxGeometry relative="1" as="geometry">
            <mxPoint x="175" y="205.0000000000001" as="sourcePoint" />
          </mxGeometry>
        </mxCell>
        <mxCell id="3nuBFxr9cyL0pnOWT2aG-9" value="returns userid &amp; hash" style="verticalAlign=bottom;endArrow=block;shadow=0;strokeWidth=1;exitX=0.38;exitY=0.996;exitDx=0;exitDy=0;exitPerimeter=0;" parent="1" source="3nuBFxr9cyL0pnOWT2aG-6" target="3nuBFxr9cyL0pnOWT2aG-2" edge="1">
          <mxGeometry relative="1" as="geometry">
            <mxPoint x="240" y="245" as="sourcePoint" />
            <mxPoint x="180" y="245" as="targetPoint" />
          </mxGeometry>
        </mxCell>
        <mxCell id="zPNpfCHawolNsik41Qsi-20" value="return" style="html=1;verticalAlign=bottom;endArrow=open;dashed=1;endSize=8;rounded=0;entryX=1.003;entryY=0.998;entryDx=0;entryDy=0;entryPerimeter=0;exitX=-0.071;exitY=0.989;exitDx=0;exitDy=0;exitPerimeter=0;" edge="1" parent="1" source="zPNpfCHawolNsik41Qsi-14" target="3nuBFxr9cyL0pnOWT2aG-2">
          <mxGeometry relative="1" as="geometry">
            <mxPoint x="410" y="423" as="sourcePoint" />
            <mxPoint x="330" y="423" as="targetPoint" />
          </mxGeometry>
        </mxCell>
      </root>
    </mxGraphModel>
  </diagram>
</mxfile>
